<?xml version="1.0" encoding="UTF-8"?>
<svg width="42px" height="44px" viewBox="0 0 42 44" version="1.1" xmlns="http://www.w3.org/2000/svg" xmlns:xlink="http://www.w3.org/1999/xlink">
    <!-- Generator: Sketch 51.3 (57544) - http://www.bohemiancoding.com/sketch -->
    <title>Group</title>
    <desc>Created with Sketch.</desc>
    <defs></defs>
    <g id="Page-1" stroke="none" stroke-width="1" fill="none" fill-rule="evenodd">
        <g id="Personal-Web" transform="translate(-136.000000, -29.000000)" fill="#F2AB27" fill-rule="nonzero">
            <g id="Group" transform="translate(157.000000, 51.000000) rotate(6.000000) translate(-157.000000, -51.000000) translate(133.000000, 27.000000)">
                <path d="M7.10355822,14.44071 L8.99736059,14.4076536 L9.05752227,17.8543138 L5.14595959,17.9225904 C4.0866715,17.9410803 3.26161314,17.0085215 3.40906001,15.9593826 L3.95544817,12.0716288 C4.03619435,11.4970898 4.40057789,11.0017251 4.92500669,10.7535531 L21.8612134,2.73894163 C22.2988812,2.53182689 22.8034825,2.51835843 23.2515757,2.70183106 L41.9499529,10.3579183 C42.4662735,10.5693268 42.8483262,11.0175807 42.9752503,11.5608768 L46.1751472,25.2579706 C46.4958924,26.6309139 45.1223154,27.7871974 43.8241761,27.2370288 L20.8490132,17.4998504 L22.1941563,14.3259449 L42.0468449,22.7397773 L39.8207615,13.2110726 L22.6487348,6.17995258 L7.23972117,13.4718603 L7.10355822,14.44071 Z" id="Line-3" transform="translate(24.807134, 14.975187) rotate(7.000000) translate(-24.807134, -14.975187) "></path>
                <path d="M5.37684301,32.2180762 L7.27064538,32.1850197 L7.33080706,35.63168 L3.41924438,35.6999565 C2.35995629,35.7184465 1.53489793,34.7858877 1.6823448,33.7367487 L2.22873296,29.8489949 C2.30947914,29.274456 2.67386268,28.7790912 3.19829148,28.5309192 L20.1344981,20.5163078 C20.572166,20.309193 21.0767673,20.2957246 21.5248604,20.4791972 L40.2232377,28.1352844 C40.7395582,28.3466929 41.1216109,28.7949468 41.2485351,29.338243 L44.448432,43.0353367 C44.7691772,44.4082801 43.3956001,45.5645635 42.0974609,45.0143949 L19.1222979,35.2772165 L20.4674411,32.103311 L40.3201297,40.5171434 L38.0940463,30.9884388 L20.9220196,23.9573187 L5.51300596,31.2492265 L5.37684301,32.2180762 Z" id="Line-3-Copy" transform="translate(23.080419, 32.752553) scale(-1, -1) rotate(7.000000) translate(-23.080419, -32.752553) "></path>
            </g>
        </g>
    </g>
</svg>