<?xml version="1.0" encoding="UTF-8"?>
<svg width="717px" height="755px" viewBox="0 0 717 755" version="1.1" xmlns="http://www.w3.org/2000/svg" xmlns:xlink="http://www.w3.org/1999/xlink">
    <!-- Generator: Sketch 51.3 (57544) - http://www.bohemiancoding.com/sketch -->
    <title>Group</title>
    <desc>Created with Sketch.</desc>
    <defs></defs>
    <g id="Page-1" stroke="none" stroke-width="1" fill="none" fill-rule="evenodd" opacity="0.2">
        <g id="Personal-Web" transform="translate(-44.000000, -3607.000000)" fill="#010101" fill-rule="nonzero">
            <g id="Footer" transform="translate(720.000000, 3859.500000) scale(-1, 1) translate(-720.000000, -3859.500000) translate(0.000000, 3270.000000)">
                <g id="Group" transform="translate(1038.000000, 714.287565) scale(-1, 1) rotate(6.000000) translate(-1038.000000, -714.287565) translate(621.000000, 294.287565)">
                    <path d="M120.098183,253.757202 L153.499714,253.174176 L154.560803,313.963903 L85.5714585,315.168117 C66.888493,315.494229 52.3367039,299.046424 54.9372662,280.542461 L64.5740698,211.973041 C65.9982132,201.839734 72.4249494,193.102846 81.6744495,188.725764 L380.383148,47.3697813 C388.102421,43.7168396 397.002217,43.4792925 404.905363,46.7152515 L734.693966,181.747842 C743.800459,185.476513 750.538831,193.382495 752.777428,202.964764 L809.21492,444.544305 C814.871995,468.759298 790.645826,489.152998 767.750174,479.449518 L362.530685,307.712131 L386.255358,251.733056 L736.402878,400.130213 L697.140812,232.069736 L394.272888,108.059871 L122.499728,236.669324 L120.098183,253.757202 Z" id="Line-3" transform="translate(432.341190, 263.183930) rotate(7.000000) translate(-432.341190, -263.183930) "></path>
                    <path d="M89.6436152,567.301669 L123.045147,566.718643 L124.106235,627.508371 L55.1168908,628.712584 C36.4339253,629.038697 21.8821362,612.590891 24.4826985,594.086929 L34.1195021,525.517508 C35.5436455,515.384202 41.9703817,506.647313 51.2198818,502.270232 L349.92858,360.914249 C357.647853,357.261307 366.547649,357.02376 374.450796,360.259719 L704.239398,495.292309 C713.345891,499.020981 720.084263,506.926962 722.32286,516.509232 L778.760352,758.088773 C784.417427,782.303766 760.191258,802.697466 737.295606,792.993986 L332.076117,621.256598 L355.80079,565.277524 L705.94831,713.674681 L666.686244,545.614204 L363.81832,421.604338 L92.0451599,550.213791 L89.6436152,567.301669 Z" id="Line-3-Copy" transform="translate(401.886622, 576.728397) scale(-1, -1) rotate(7.000000) translate(-401.886622, -576.728397) "></path>
                </g>
            </g>
        </g>
    </g>
</svg>